HIERARCHY
ROOT Hips
{
    OFFSET 0.000000 0.000000 0.000000
    CHANNELS 6 Xposition Yposition Zposition Zrotation Xrotation Yrotation
    JOINT Spine
    {
        OFFSET -0.000000 8.079700 0.000000
        CHANNELS 3 Zrotation Xrotation Yrotation
        JOINT Spine1
        {
            OFFSET -0.000000 23.289207 0.000000
            CHANNELS 3 Zrotation Xrotation Yrotation
            JOINT Neck
            {
                OFFSET -0.000000 23.193563 2.108506
                CHANNELS 3 Zrotation Xrotation Yrotation
                JOINT Head
                {
                    OFFSET -0.000000 13.794610 -1.970658
                    CHANNELS 3 Zrotation Xrotation Yrotation
                    End Site
                    {
                        OFFSET -0.000000 24.633232 0.000000
                    }
                }
            }
            JOINT LeftShoulder
            {
                OFFSET 3.964071 21.437269 -0.109506
                CHANNELS 3 Zrotation Xrotation Yrotation
                JOINT LeftArm
                {
                    OFFSET 10.889085 0.000000 0.000000
                    CHANNELS 3 Zrotation Xrotation Yrotation
                    JOINT LeftForeArm
                    {
                        OFFSET 33.323662 0.000000 0.000000
                        CHANNELS 3 Zrotation Xrotation Yrotation
                        JOINT LeftHand
                        {
                            OFFSET 25.127829 0.000000 0.000000
                            CHANNELS 3 Zrotation Xrotation Yrotation
                            End Site
                            {
                                OFFSET 14.779941 0.000000 0.000000
                            }
                        }
                    }
                }
            }
            JOINT RightShoulder
            {
                OFFSET -3.907116 21.437269 -0.109506
                CHANNELS 3 Zrotation Xrotation Yrotation
                JOINT RightArm
                {
                    OFFSET -10.889085 0.000000 0.000000
                    CHANNELS 3 Zrotation Xrotation Yrotation
                    JOINT RightForeArm
                    {
                        OFFSET -33.323662 0.000000 0.000000
                        CHANNELS 3 Zrotation Xrotation Yrotation
                        JOINT RightHand
                        {
                            OFFSET -25.127829 0.000000 0.000000
                            CHANNELS 3 Zrotation Xrotation Yrotation
                            End Site
                            {
                                OFFSET -14.779941 0.000000 0.000000
                            }
                        }
                    }
                }
            }
        }
    }
    JOINT LeftUpLeg
    {
        OFFSET 9.853293 0.000000 0.000000
        CHANNELS 3 Zrotation Xrotation Yrotation
        JOINT LeftLeg
        {
            OFFSET -0.000000 -42.191887 0.000000
            CHANNELS 3 Zrotation Xrotation Yrotation
            JOINT LeftFoot
            {
                OFFSET -0.000000 -39.359688 0.000000
                CHANNELS 3 Zrotation Xrotation Yrotation
                JOINT LeftToeBase
                {
                    OFFSET -0.000000 -6.404640 14.779941
                    CHANNELS 3 Zrotation Xrotation Yrotation
                    End Site
                    {
                        OFFSET -0.000000 0.000000 3.941317
                    }
                }
            }
        }
    }
    JOINT RightUpLeg
    {
        OFFSET -9.853293 0.000000 0.000000
        CHANNELS 3 Zrotation Xrotation Yrotation
        JOINT RightLeg
        {
            OFFSET -0.000000 -42.191887 0.000000
            CHANNELS 3 Zrotation Xrotation Yrotation
            JOINT RightFoot
            {
                OFFSET -0.000000 -39.359688 0.000000
                CHANNELS 3 Zrotation Xrotation Yrotation
                JOINT RightToeBase
                {
                    OFFSET -0.000000 -6.404640 14.779941
                    CHANNELS 3 Zrotation Xrotation Yrotation
                    End Site
                    {
                        OFFSET -0.000000 0.000000 3.941317
                    }
                }
            }
        }
    }
}
MOTION
Frames:    4
Frame Time:    0.008333
13.427048    88.716225    -49.711479    5.375121    -10.280466    -111.091583    4.185510    17.626230    4.546842    -0.820708    1.184442    5.204442    -10.001115    25.969671    33.043934    -26.576477    -5.401599    28.883921    -6.251985    9.083832    11.058792    -55.139580    45.218884    -8.228326    1.055559    -19.739731    -29.744663    10.993763    -19.548933    -0.807094    -8.386817    9.088800    13.936012    42.013783    28.884844    28.040779    -17.879932    -9.031085    21.897308    -32.468185    -8.695765    10.781212    2.891115    -25.852442    -5.179587    4.779490    41.682568    0.356137    8.714262    0.838517    10.753503    0.000000    0.000000    0.000000    -18.034880    -26.596817    -19.886028    12.055966    37.153282    -3.785698    -18.872286    -12.527067    -24.003654    0.000000    0.000000    0.000000    
13.448106    88.740631    -50.051384    5.308679    -10.244669    -110.632751    4.234854    17.616629    4.538678    -0.810082    1.207322    5.203624    -10.068227    26.027021    33.032475    -26.528994    -5.521008    28.839813    -6.238532    9.056035    11.106386    -55.146057    45.241371    -8.275702    1.087699    -19.753628    -29.720798    10.785389    -19.542002    -0.676036    -8.390188    9.072893    13.886335    42.065247    28.824125    27.949127    -17.991407    -8.919280    21.980030    -32.525208    -8.485097    10.543521    2.847631    -25.950453    -4.979173    4.562753    41.889339    1.154747    9.170730    0.960956    10.876091    0.000000    0.000000    0.000000    -18.032297    -26.211813    -20.349583    12.142554    37.091328    -4.007730    -18.969219    -12.733302    -23.787535    0.000000    0.000000    0.000000    
13.468072    88.765244    -50.395554    5.243655    -10.195721    -110.186172    4.322111    17.648792    4.513718    -0.854766    1.139857    5.193422    -10.053109    26.038628    32.962582    -26.475544    -5.445260    28.791946    -6.220647    9.061863    11.163782    -55.120110    45.367989    -8.286195    1.129593    -19.711426    -29.680553    10.461788    -19.500862    -0.827080    -8.322920    9.120761    13.957815    42.097492    28.699247    27.775946    -18.051670    -8.765182    22.101002    -32.401951    -8.191933    10.215879    2.806315    -26.035664    -4.764071    4.411783    42.113071    1.797804    9.540939    0.930060    11.139838    0.000000    0.000000    0.000000    -17.997828    -25.829714    -20.944221    12.094580    37.053596    -4.110147    -19.199383    -12.943724    -23.496132    0.000000    0.000000    0.000000    
13.494238    88.782654    -50.729019    5.266129    -10.170892    -109.730759    4.362422    17.542522    4.527224    -0.855914    1.158502    5.209194    -9.937141    26.053728    33.016605    -26.566242    -5.353337    28.865236    -6.175901    9.020862    11.243370    -55.129536    45.465351    -8.307686    1.153311    -19.681280    -29.700476    10.419429    -19.459772    -0.774873    -8.266434    9.103464    13.898171    42.071434    28.709328    27.697376    -18.132494    -8.708916    22.158251    -32.522648    -8.054770    9.985953    2.800417    -26.201441    -4.584983    4.109697    42.261219    2.683341    9.702580    0.686604    11.284240    0.000000    0.000000    0.000000    -17.995007    -25.524147    -21.419167    12.207170    36.992355    -4.159731    -19.282700    -13.130138    -23.409145    0.000000    0.000000    0.000000    
